<svg id="Layer_1" data-name="Layer 1" xmlns="http://www.w3.org/2000/svg" viewBox="0 0 58.53 73.46"><defs><style>.cls-1{fill:#c8c8c8;}.cls-1,.cls-2{stroke:#fff;}.cls-1,.cls-2,.cls-3{stroke-miterlimit:10;stroke-width:0.5px;}.cls-2{fill:#c9c9c9;}.cls-3{fill:#fff;stroke:#7386d5;}</style></defs><title>payem_logo</title><path class="cls-1" d="M27.16,37.22a27.51,27.51,0,0,0-3.48-4.07c-1.6-1.77-2.09-3.57-.33-5.45s3.56-1.15,5.26.06c2.73,1.95,5.4,4,8.1,6,3.55,2.64,5.59,1.94,6.75-2.34.62-2.29,1.28-4.58,1.81-6.9.45-2,1.54-2.07,3.1-1.3a10.15,10.15,0,0,1,3.44,3.36c1.43,1.9,3,3.68,4.6,5.46a5,5,0,0,1,1.23,5.07C56.26,42,55,46.91,53.8,51.84c-.53,2.1-1.29,3-3.84,2.35-5-1.3-9.78-2.78-13.62-6.43a3.31,3.31,0,0,0-1-.7c-3,3-4.12,1.06-5.42-.33a6.39,6.39,0,0,1-2.32,1.18,3.67,3.67,0,0,1-3-.62,6.42,6.42,0,0,1-1.4-2.34,10.9,10.9,0,0,1-2.37.33c-1.14-.22-1.81-1-2-2.56-.63-5,.89-6.09,5-5.65C24.43,37.13,25.74,37.11,27.16,37.22Z" transform="translate(-2.53 -2.92)"/><path class="cls-1" d="M5.77,27C7,22.17,8,18.19,9,14.2c.34-1.37,1-2,2.55-1.62q14.75,3.86,29.53,7.6c1.16.29,1.32,1,1.1,1.94-.61,2.52-1.26,5-1.92,7.54-.38,1.44-1.07,1.69-2.32.73-2.32-1.78-4.75-3.42-7.1-5.16-5.24-3.9-11-1.63-12,4.8-.21,1.37-.47,2-2,1.52C13.93,30.7,11,30,8.05,29.24,6.48,28.82,5.67,27.81,5.77,27Z" transform="translate(-2.53 -2.92)"/><path class="cls-2" d="M44.25,13.2c-.06,2.57-.52,4-3.64,3.14-9-2.52-18.15-4.82-27.27-7C11.24,8.81,10.62,7.9,11.09,6s1.39-3.25,3.63-2.67q13.8,3.56,27.58,7.17A2.24,2.24,0,0,1,44.25,13.2Z" transform="translate(-2.53 -2.92)"/><path class="cls-3" d="M2.78,72.56v-10H7.69a2,2,0,0,1,1.46.6,2,2,0,0,1,.61,1.44v2.53a1.93,1.93,0,0,1-.61,1.43,2,2,0,0,1-1.47.59H4.18v3.41A.64.64,0,0,1,4,73a.67.67,0,0,1-.49.2A.7.7,0,0,1,3,73,.63.63,0,0,1,2.78,72.56Zm1.4-4.76H7.69a.68.68,0,0,0,.49-.2.64.64,0,0,0,.21-.48V64.6a.64.64,0,0,0-.21-.48.68.68,0,0,0-.49-.2H4.18Z" transform="translate(-2.53 -2.92)"/><path class="cls-3" d="M15,68.36h2.71a3.17,3.17,0,0,1,.64.1l0-1a.64.64,0,0,0-.2-.48.68.68,0,0,0-.49-.2H15a.67.67,0,0,1-.49-.2.66.66,0,0,1,0-1,.68.68,0,0,1,.49-.2h2.63a2,2,0,0,1,1.46.59,2,2,0,0,1,.63,1.44l.17,5.05a.64.64,0,0,1-.21.48.68.68,0,0,1-.49.2.7.7,0,0,1-.5-.2.64.64,0,0,1-.21-.48l-1.17.67H15a2,2,0,0,1-1.48-.59,1.94,1.94,0,0,1-.61-1.45V70.4A1.94,1.94,0,0,1,13.55,69,2,2,0,0,1,15,68.36ZM18.49,71l0-.57a.68.68,0,0,0-.69-.67H15a.68.68,0,0,0-.49.2.64.64,0,0,0-.2.48v.75a.64.64,0,0,0,.21.47.67.67,0,0,0,.49.2h2Z" transform="translate(-2.53 -2.92)"/><path class="cls-3" d="M30.14,67.46l-3.73,8.23a.67.67,0,0,1-.66.44H23.83a.68.68,0,0,1-.49-.19.64.64,0,0,1-.2-.48.63.63,0,0,1,.2-.47.68.68,0,0,1,.49-.19h1.48l.95-2.15h-.34a.7.7,0,0,1-.68-.47l-2.07-4.71v-1.3a.67.67,0,0,1,.68-.67.71.71,0,0,1,.5.2.63.63,0,0,1,.21.48v1l1.82,4.11h.48l1.88-4.1v-1a.64.64,0,0,1,.21-.47.69.69,0,0,1,.5-.21.67.67,0,0,1,.49.2.64.64,0,0,1,.21.47Z" transform="translate(-2.53 -2.92)"/><path class="cls-3" d="M38.91,66.75a.64.64,0,0,1-.2.48.71.71,0,0,1-1,0,.64.64,0,0,1-.2-.48V63.92H35.41a.66.66,0,0,1-.49-.2.67.67,0,0,1-.2-.49.64.64,0,0,1,.21-.47.68.68,0,0,1,.49-.2h2.8a.69.69,0,0,1,.69.69Z" transform="translate(-2.53 -2.92)"/><path class="cls-3" d="M49.8,63.92H44.91v3.29H47a.68.68,0,0,1,.49.2.64.64,0,0,1,.21.47.69.69,0,0,1-.69.69H44.91v3.31h4.91a.68.68,0,0,1,.49.2.64.64,0,0,1,.21.48.63.63,0,0,1-.21.48.7.7,0,0,1-.5.2H43.52V62.55H49.8a.69.69,0,0,1,.5.21.66.66,0,0,1,.21.49.64.64,0,0,1-.21.47A.69.69,0,0,1,49.8,63.92Z" transform="translate(-2.53 -2.92)"/><path class="cls-3" d="M53.54,72.56v-6.4a.64.64,0,0,1,.2-.48.68.68,0,0,1,.49-.2.64.64,0,0,1,.68.51,1.85,1.85,0,0,1,1.28-.53,1.66,1.66,0,0,1,1.37.69A2,2,0,0,1,59,65.46a1.57,1.57,0,0,1,1.11.45A1.61,1.61,0,0,1,60.62,67l.2,5.51a.64.64,0,0,1-.21.47.68.68,0,0,1-.49.2.68.68,0,0,1-.49-.2.67.67,0,0,1-.21-.47l-.17-5.29c0-.29-.1-.43-.27-.43a.47.47,0,0,0-.29.12l-.82.67v4.93a.62.62,0,0,1-.2.47.71.71,0,0,1-1,0,.64.64,0,0,1-.21-.48V67.17q0-.35-.3-.35a.41.41,0,0,0-.27.1l-1,.82v4.8a.65.65,0,0,1-.2.47.65.65,0,0,1-.48.2.7.7,0,0,1-.5-.2A.64.64,0,0,1,53.54,72.56Z" transform="translate(-2.53 -2.92)"/></svg>